<?xml version="1.0" standalone="no"?>
<!DOCTYPE svg PUBLIC "-//W3C//DTD SVG 20010904//EN"
 "http://www.w3.org/TR/2001/REC-SVG-20010904/DTD/svg10.dtd">
<svg version="1.0" xmlns="http://www.w3.org/2000/svg"
 width="271.000000pt" height="265.000000pt" viewBox="0 0 271.000000 265.000000"
 preserveAspectRatio="xMidYMid meet">

<g transform="translate(0.000000,265.000000) scale(0.100000,-0.100000)"
fill="#000000" stroke="none">
<path d="M0 1325 l0 -1325 1355 0 1355 0 0 1325 0 1325 -1355 0 -1355 0 0
-1325z m2680 660 c7 -8 10 -25 6 -39 -15 -62 -195 -214 -409 -346 -107 -66
-133 -89 -57 -50 23 12 43 20 45 18 1 -2 -71 -97 -162 -213 -124 -159 -170
-211 -188 -213 -29 -4 -33 -17 48 168 31 69 54 126 53 128 -9 9 -355 -182
-435 -240 -148 -106 -186 -90 -96 40 l55 81 -85 57 c-48 31 -83 60 -78 64 4 3
26 14 49 24 l41 18 93 -41 94 -40 51 37 c27 20 81 59 119 86 l69 51 -114 12
c-63 6 -134 12 -159 12 -25 1 -51 5 -58 9 -22 15 -2 39 36 45 229 33 501 80
519 90 12 6 73 48 135 93 129 92 215 143 261 154 59 14 153 11 167 -5z m-2407
-406 c-26 -84 -23 -246 5 -331 113 -332 534 -521 1009 -453 351 50 632 189
853 422 51 54 87 87 80 73 -14 -27 -77 -119 -110 -160 -11 -14 -29 -59 -39
-102 -68 -266 -302 -490 -578 -552 -92 -20 -243 -21 -336 0 -73 16 -231 86
-277 123 l-25 21 130 0 c123 0 279 19 328 40 15 7 3 8 -43 4 -104 -11 -298 -8
-385 6 -232 35 -389 105 -522 233 -182 175 -223 425 -111 670 17 37 33 66 35
64 1 -2 -5 -28 -14 -58z"/>
</g>
</svg>
